<svg width="204" height="61" viewBox="0 0 204 61" fill="none" xmlns="http://www.w3.org/2000/svg">
    <circle cx="17.5" cy="30.5" r="17.5" fill="#4154F1"/>
    <path d="M16.5138 35.9406C16.208 35.9411 15.9102 35.8421 15.6655 35.6586L15.6503 35.6473L12.455 33.203C12.1565 32.9737 11.9613 32.6353 11.9121 32.2621C11.863 31.889 11.964 31.5116 12.193 31.2129C12.422 30.9142 12.7603 30.7186 13.1334 30.6692C13.5065 30.6197 13.884 30.7204 14.1829 30.9492L16.2526 32.5363L21.1433 26.1558C21.2567 26.0079 21.3981 25.8837 21.5595 25.7905C21.7209 25.6972 21.899 25.6366 22.0838 25.6122C22.2686 25.5878 22.4564 25.6 22.6365 25.6482C22.8165 25.6964 22.9853 25.7795 23.1333 25.893L23.1337 25.8933L23.1033 25.9354L23.1345 25.8933C23.4329 26.1226 23.6282 26.461 23.6774 26.8342C23.7266 27.2073 23.6258 27.5848 23.3971 27.8837L17.6445 35.3851C17.5114 35.558 17.3403 35.6978 17.1445 35.7939C16.9486 35.8899 16.7332 35.9395 16.5151 35.9389L16.5138 35.9406Z" fill="white"/>
    <path d="M43.51 45.315C42.61 45.315 41.98 45.03 41.62 44.46C41.29 43.86 41.32 43.14 41.71 42.3L53.905 14.94C54.205 14.25 54.58 13.755 55.03 13.455C55.48 13.125 56.005 12.96 56.605 12.96C57.145 12.96 57.64 13.125 58.09 13.455C58.57 13.755 58.96 14.25 59.26 14.94L71.455 42.3C71.845 43.17 71.875 43.89 71.545 44.46C71.245 45.03 70.66 45.315 69.79 45.315C69.13 45.315 68.605 45.15 68.215 44.82C67.825 44.49 67.48 43.98 67.18 43.29L64.57 37.26H48.505L45.94 43.29C45.64 44.01 45.31 44.535 44.95 44.865C44.59 45.165 44.11 45.315 43.51 45.315ZM56.515 18.45L50.17 33.48H62.995L56.605 18.45H56.515ZM78.5798 45.315C77.0798 45.315 76.3298 44.55 76.3298 43.02V25.02C76.3298 23.49 77.0648 22.725 78.5348 22.725C80.0048 22.725 80.7398 23.49 80.7398 25.02V26.685C81.4898 25.365 82.5098 24.36 83.7998 23.67C85.1198 22.98 86.5898 22.635 88.2098 22.635C93.3998 22.635 95.9948 25.575 95.9948 31.455V43.02C95.9948 44.55 95.2448 45.315 93.7448 45.315C92.2148 45.315 91.4498 44.55 91.4498 43.02V31.725C91.4498 29.835 91.0748 28.455 90.3248 27.585C89.6048 26.715 88.4648 26.28 86.9048 26.28C85.0748 26.28 83.6048 26.865 82.4948 28.035C81.4148 29.175 80.8748 30.69 80.8748 32.58V43.02C80.8748 44.55 80.1098 45.315 78.5798 45.315ZM111.798 45.405C109.578 45.405 107.658 44.94 106.038 44.01C104.418 43.08 103.158 41.775 102.258 40.095C101.388 38.385 100.953 36.36 100.953 34.02C100.953 31.68 101.388 29.67 102.258 27.99C103.158 26.28 104.418 24.96 106.038 24.03C107.658 23.1 109.578 22.635 111.798 22.635C113.958 22.635 115.848 23.1 117.468 24.03C119.088 24.96 120.348 26.28 121.248 27.99C122.148 29.67 122.598 31.68 122.598 34.02C122.598 36.36 122.148 38.385 121.248 40.095C120.348 41.775 119.088 43.08 117.468 44.01C115.848 44.94 113.958 45.405 111.798 45.405ZM111.798 41.895C113.658 41.895 115.158 41.22 116.298 39.87C117.438 38.52 118.008 36.57 118.008 34.02C118.008 31.47 117.438 29.535 116.298 28.215C115.158 26.865 113.658 26.19 111.798 26.19C109.908 26.19 108.393 26.865 107.253 28.215C106.113 29.535 105.543 31.47 105.543 34.02C105.543 36.57 106.113 38.52 107.253 39.87C108.393 41.22 109.908 41.895 111.798 41.895ZM136.842 45.405C134.082 45.405 132.027 44.7 130.677 43.29C129.327 41.88 128.652 39.84 128.652 37.17V26.55H125.952C124.692 26.55 124.062 25.965 124.062 24.795C124.062 23.625 124.692 23.04 125.952 23.04H128.652V18.405C128.652 16.875 129.417 16.11 130.947 16.11C132.447 16.11 133.197 16.875 133.197 18.405V23.04H138.462C139.722 23.04 140.352 23.625 140.352 24.795C140.352 25.965 139.722 26.55 138.462 26.55H133.197V36.81C133.197 38.4 133.527 39.6 134.187 40.41C134.877 41.22 135.987 41.625 137.517 41.625C138.057 41.625 138.522 41.58 138.912 41.49C139.302 41.37 139.647 41.295 139.947 41.265C140.277 41.265 140.547 41.385 140.757 41.625C140.967 41.835 141.072 42.255 141.072 42.885C141.072 43.365 140.982 43.8 140.802 44.19C140.652 44.55 140.367 44.79 139.947 44.91C139.587 45.06 139.092 45.18 138.462 45.27C137.862 45.36 137.322 45.405 136.842 45.405ZM150.938 45.405C149.408 45.405 148.043 45.105 146.843 44.505C145.643 43.905 144.683 43.095 143.963 42.075C143.273 41.055 142.928 39.9 142.928 38.61C142.928 36.99 143.333 35.715 144.143 34.785C144.983 33.855 146.348 33.18 148.238 32.76C150.158 32.34 152.738 32.13 155.978 32.13H157.508V30.96C157.508 29.25 157.148 28.02 156.428 27.27C155.708 26.52 154.523 26.145 152.873 26.145C151.913 26.145 150.908 26.265 149.858 26.505C148.838 26.745 147.773 27.15 146.663 27.72C146.033 28.02 145.508 28.065 145.088 27.855C144.698 27.645 144.428 27.315 144.278 26.865C144.128 26.415 144.143 25.95 144.323 25.47C144.503 24.99 144.878 24.63 145.448 24.39C146.768 23.79 148.073 23.355 149.363 23.085C150.653 22.785 151.868 22.635 153.008 22.635C156.008 22.635 158.228 23.355 159.668 24.795C161.108 26.205 161.828 28.425 161.828 31.455V43.02C161.828 44.55 161.123 45.315 159.713 45.315C158.273 45.315 157.553 44.55 157.553 43.02V41.355C157.013 42.615 156.173 43.605 155.033 44.325C153.893 45.045 152.528 45.405 150.938 45.405ZM151.838 42.165C153.458 42.165 154.808 41.595 155.888 40.455C156.968 39.315 157.508 37.875 157.508 36.135V34.92H156.023C153.833 34.92 152.108 35.025 150.848 35.235C149.618 35.445 148.733 35.805 148.193 36.315C147.683 36.795 147.428 37.47 147.428 38.34C147.428 39.48 147.818 40.41 148.598 41.13C149.378 41.82 150.458 42.165 151.838 42.165ZM175.153 45.405C172.813 45.405 171.043 44.73 169.843 43.38C168.673 42.03 168.088 40.05 168.088 37.44V15.255C168.088 13.725 168.838 12.96 170.338 12.96C171.868 12.96 172.633 13.725 172.633 15.255V37.17C172.633 40.14 173.833 41.625 176.233 41.625C176.503 41.625 176.743 41.61 176.953 41.58C177.163 41.55 177.373 41.535 177.583 41.535C177.943 41.505 178.198 41.61 178.348 41.85C178.498 42.06 178.573 42.51 178.573 43.2C178.573 44.43 178.003 45.135 176.863 45.315C176.563 45.345 176.263 45.36 175.963 45.36C175.693 45.39 175.423 45.405 175.153 45.405ZM191.163 45.405C188.943 45.405 187.023 44.94 185.403 44.01C183.783 43.08 182.523 41.775 181.623 40.095C180.753 38.385 180.318 36.36 180.318 34.02C180.318 31.68 180.753 29.67 181.623 27.99C182.523 26.28 183.783 24.96 185.403 24.03C187.023 23.1 188.943 22.635 191.163 22.635C193.323 22.635 195.213 23.1 196.833 24.03C198.453 24.96 199.713 26.28 200.613 27.99C201.513 29.67 201.963 31.68 201.963 34.02C201.963 36.36 201.513 38.385 200.613 40.095C199.713 41.775 198.453 43.08 196.833 44.01C195.213 44.94 193.323 45.405 191.163 45.405ZM191.163 41.895C193.023 41.895 194.523 41.22 195.663 39.87C196.803 38.52 197.373 36.57 197.373 34.02C197.373 31.47 196.803 29.535 195.663 28.215C194.523 26.865 193.023 26.19 191.163 26.19C189.273 26.19 187.758 26.865 186.618 28.215C185.478 29.535 184.908 31.47 184.908 34.02C184.908 36.57 185.478 38.52 186.618 39.87C187.758 41.22 189.273 41.895 191.163 41.895Z" fill="white"/>
</svg>
    