<svg width="35" height="35" viewBox="0 0 35 35" fill="none" xmlns="http://www.w3.org/2000/svg">
<circle cx="17.5" cy="17.5" r="17.5" fill="#4154F1"/>
<path d="M16.5138 22.9406C16.208 22.9411 15.9102 22.8421 15.6655 22.6586L15.6503 22.6473L12.455 20.203C12.1565 19.9737 11.9613 19.6353 11.9121 19.2621C11.863 18.889 11.964 18.5116 12.193 18.2129C12.422 17.9142 12.7603 17.7186 13.1334 17.6692C13.5065 17.6197 13.884 17.7204 14.1829 17.9492L16.2526 19.5363L21.1433 13.1558C21.2567 13.0079 21.3981 12.8837 21.5595 12.7905C21.7209 12.6972 21.899 12.6366 22.0838 12.6122C22.2686 12.5878 22.4564 12.6 22.6365 12.6482C22.8165 12.6964 22.9853 12.7795 23.1333 12.893L23.1337 12.8933L23.1033 12.9354L23.1345 12.8933C23.4329 13.1226 23.6282 13.461 23.6774 13.8342C23.7266 14.2073 23.6258 14.5848 23.3971 14.8837L17.6445 22.3851C17.5114 22.558 17.3403 22.6978 17.1445 22.7939C16.9486 22.8899 16.7332 22.9395 16.5151 22.9389L16.5138 22.9406Z" fill="white"/>
</svg>
